# xmcd
#
# Track frame offsets: 
#        150
#        36465
#        78305
#        127760
#
# Disc length: 2318 seconds
#
# Revision: 0
# Processed by: cddbd v1.5.2PL0 Copyright (c) Steve Scherf et al.
# Submitted via: ExactAudioCopy v0.95b4
#
DISCID=28090c04
DTITLE=Jandek - Brooklyn Wednesday CD4
DYEAR=2007
DGENRE=Blues
TTITLE0=Sea Of People
TTITLE1=Sorry, Sorry
TTITLE2=Tequila Girl
TTITLE3=Just Enough
EXTD=
EXTT0=
EXTT1=
EXTT2=
EXTT3=
PLAYORDER=
